<svg xmlns="http://www.w3.org/2000/svg" xmlns:xlink="http://www.w3.org/1999/xlink" version="1.1" id="logo" x="0px" y="0px" width="170px" height="55px" viewBox="0 0 170 55" enable-background="new 0 0 170 55" xml:space="preserve">
  <text transform="matrix(1 0 0 1 39.3904 47.0858)" font-family="'PTSans-Bold'" font-size="32">
    Bytelingo
  </text>
  <g id="speech">
    <text transform="matrix(1.0541 0 0 1 6.4966 21.669)" font-family="'PTMono-Bold'" font-size="15">
      101
    </text>
    <g id="bubble">
      <g id="Message">
        <g>
          <path fill="#010101" d="M0.458 17.038c0 9.24 9.108 16.754 20.303 16.754 0.774 0 1.582-0.04 2.413-0.119 2.47 2.271 6.142 4.68 10.589 4.68 1.097 0 2.083-0.641 2.512-1.636 0.034-0.077 0.062-0.154 0.084-0.233 0.285-0.999 0.031-2.05-0.664-2.744 -0.006-0.005-1.348-1.408-1.976-3.79 4.625-3.17 7.346-7.911 7.346-12.913 0-9.237-9.108-16.754-20.303-16.754S0.459 7.801 0.458 17.038zM4.354 17.038c0-7.103 7.36-12.883 16.407-12.883 9.048 0 16.407 5.78 16.407 12.883 0 4.09-2.409 7.855-6.608 10.325 -0.673 0.397-1.041 1.153-0.938 1.921 0.267 1.998 0.93 3.619 1.596 4.816 -2.45-0.731-4.528-2.382-5.978-3.822 -0.429-0.425-1.031-0.622-1.63-0.551 -0.996 0.128-1.956 0.193-2.85 0.193C11.714 29.92 4.354 24.144 4.354 17.038z"/>
        </g>
      </g>
    </g>
  </g>
</svg>
